<?xml version="1.0" encoding="UTF-8"?>
<svg id="Layer_1" data-name="Layer 1" xmlns="http://www.w3.org/2000/svg" viewBox="0 0 730 730">
  <defs>
    <style>
      .cls-1 {
        stroke-width: 0px;
      }
    </style>
  </defs>
  <path fill="#9EAFC1" class="cls-1" d="m365,729.5c-49.21,0-96.94-9.64-141.88-28.64-43.4-18.36-82.39-44.64-115.86-78.12-33.48-33.47-59.76-72.46-78.12-115.86C10.14,461.94.5,414.21.5,365s9.64-96.94,28.64-141.88c18.36-43.4,44.64-82.39,78.12-115.86,33.48-33.48,72.46-59.76,115.86-78.12C268.06,10.14,315.79.5,365,.5s96.94,9.64,141.88,28.64c43.4,18.36,82.39,44.64,115.86,78.12,33.48,33.48,59.76,72.46,78.12,115.86,19.01,44.94,28.64,92.67,28.64,141.88s-9.64,96.94-28.64,141.88c-18.36,43.4-44.64,82.39-78.12,115.86-33.47,33.48-72.46,59.76-115.86,78.12-44.94,19.01-92.67,28.64-141.88,28.64Z"/>
  <path fill="#9EAFC1" class="cls-1" d="m365,1c49.14,0,96.81,9.62,141.68,28.6,43.34,18.33,82.27,44.58,115.7,78.01,33.43,33.43,59.68,72.36,78.01,115.7,18.98,44.88,28.6,92.54,28.6,141.68s-9.62,96.81-28.6,141.68c-18.33,43.34-44.58,82.27-78.01,115.7-33.43,33.43-72.36,59.68-115.7,78.01-44.88,18.98-92.54,28.6-141.68,28.6s-96.81-9.62-141.68-28.6c-43.34-18.33-82.27-44.58-115.7-78.01-33.43-33.43-59.68-72.36-78.01-115.7C10.62,461.81,1,414.14,1,365s9.62-96.81,28.6-141.68c18.33-43.34,44.58-82.27,78.01-115.7,33.43-33.43,72.36-59.68,115.7-78.01C268.19,10.62,315.86,1,365,1m0-1C163.42,0,0,163.42,0,365s163.42,365,365,365,365-163.42,365-365S566.58,0,365,0h0Z"/>
</svg>