<?xml version="1.0" encoding="UTF-8"?>
<svg id="Layer_1" data-name="Layer 1" xmlns="http://www.w3.org/2000/svg" viewBox="0 0 730 730">
  <defs>
    <style>
      .cls-1 {
        stroke-width: 0px;
      }
    </style>
  </defs>
  <path fill="#ffffff" class="cls-1" d="m365,100c70.78,0,137.33,27.56,187.38,77.62s77.62,116.6,77.62,187.38-27.56,137.33-77.62,187.38-116.6,77.62-187.38,77.62-137.33-27.56-187.38-77.62c-50.05-50.05-77.62-116.6-77.62-187.38s27.56-137.33,77.62-187.38c50.05-50.05,116.6-77.62,187.38-77.62m0-100C163.42,0,0,163.42,0,365s163.42,365,365,365,365-163.42,365-365S566.58,0,365,0h0Z"/>
</svg>