<?xml version="1.0" encoding="utf-8"?>
<!-- Generator: Adobe Illustrator 27.9.0, SVG Export Plug-In . SVG Version: 6.00 Build 0)  -->
<svg version="1.1" id="Layer_1" xmlns="http://www.w3.org/2000/svg" xmlns:xlink="http://www.w3.org/1999/xlink" x="0px" y="0px"
	 viewBox="0 0 800 800" style="enable-background:new 0 0 800 800;" xml:space="preserve">
<style type="text/css">
	.st0{fill-rule:evenodd;clip-rule:evenodd;}
</style>
<g id="SVGRepo_bgCarrier">
</g>
<g id="SVGRepo_tracerCarrier">
</g>
<g id="SVGRepo_iconCarrier">
	<path class="st0" d="M400,175c-92.5,0-173.4,55.4-229.1,106.6c-28.3,26-51.1,52-66.8,71.4c-7.9,9.7-14,17.9-18.2,23.6
		c-2.1,2.9-3.7,5.2-4.8,6.8c-0.6,0.8-1,1.4-1.3,1.9l-0.4,0.5l-0.1,0.2l-9.1,14.5l9.1,13.5l0,0.1l0.1,0.2l0.4,0.5
		c0.3,0.4,0.7,1.1,1.3,1.9c1.1,1.6,2.7,3.9,4.8,6.8c4.2,5.8,10.4,13.9,18.2,23.6c15.7,19.4,38.5,45.4,66.8,71.4
		C226.6,569.6,307.5,625,400,625c92.5,0,173.4-55.4,229.1-106.6c28.3-26,51.1-52,66.8-71.4c7.9-9.7,14-17.9,18.2-23.6
		c2.1-2.9,3.7-5.2,4.8-6.8c0.6-0.8,1-1.4,1.3-1.9l0.4-0.5l0.1-0.2l0-0.1l9.4-14l-9.4-14l0-0.1l-0.1-0.2l-0.4-0.5
		c-0.3-0.4-0.7-1.1-1.3-1.9c-1.1-1.6-2.7-3.9-4.8-6.8c-4.2-5.8-10.4-13.9-18.2-23.6c-15.7-19.4-38.5-45.4-66.8-71.4
		C573.4,230.4,492.5,175,400,175z M143,415.5c-4.8-5.9-8.8-11.2-12.1-15.5c3.3-4.4,7.4-9.6,12.1-15.5c14.6-18.1,35.8-42.1,61.8-66.1
		c52.9-48.8,122-93.4,195.2-93.4c73.2,0,142.2,44.6,195.2,93.4c26,24,47.2,48,61.8,66.1c4.8,5.9,8.8,11.2,12.2,15.5
		c-3.3,4.4-7.4,9.6-12.2,15.5c-14.6,18.1-35.8,42.1-61.8,66.1C542.3,530.4,473.2,575,400,575c-73.2,0-142.3-44.6-195.2-93.4
		C178.8,457.6,157.6,433.6,143,415.5z M475,400c0,41.4-33.6,75-75,75c-41.4,0-75-33.6-75-75s33.6-75,75-75
		C441.4,325,475,358.6,475,400z M525,400c0,69-56,125-125,125c-69,0-125-56-125-125c0-69,56-125,125-125C469,275,525,331,525,400z"
		/>
</g>
</svg>
